<?xml version="1.0" encoding="iso-8859-1"?>
<!-- Generator: Adobe Illustrator 18.0.0, SVG Export Plug-In . SVG Version: 6.00 Build 0)  -->
<!DOCTYPE svg PUBLIC "-//W3C//DTD SVG 1.1//EN" "http://www.w3.org/Graphics/SVG/1.1/DTD/svg11.dtd">
<svg version="1.1" id="&#x56FE;&#x5C42;_1" xmlns="http://www.w3.org/2000/svg" xmlns:xlink="http://www.w3.org/1999/xlink" x="0px"
	 y="0px" viewBox="0 0 1024 1024" style="enable-background:new 0 0 1024 1024;" xml:space="preserve">
<path style="fill:#e73426;" d="M512,64C264.576,64,64,264.576,64,512c0,247.423,200.576,448,448,448s448-200.577,448-448
	C960,264.576,759.424,64,512,64z M715.354,431.525L488.293,658.589c-7.292,7.292-16.844,10.938-26.396,10.938
	s-19.104-3.646-26.396-10.938L321.969,545.058c-14.583-14.583-14.583-38.208,0-52.791s38.208-14.583,52.792,0l87.135,87.135
	l200.667-200.667c14.584-14.583,38.208-14.583,52.792,0S729.938,416.942,715.354,431.525z"/>
</svg>
